<svg xmlns="http://www.w3.org/2000/svg" viewBox="0 0 128 148" fill="none">
  <title>CivicReports mark</title>

  <ellipse cx="64" cy="74" rx="48" ry="60" stroke="#9E6E59" stroke-width="3.2"/>

  <g stroke="#B38874" stroke-linecap="round" stroke-width="2.2" opacity="0.34">
    <path d="M33 28h17"/>
    <path d="M56 28h12"/>
    <path d="M28 36h23"/>
    <path d="M59 36h17"/>
    <path d="M24 46h11"/>
    <path d="M39 46h17"/>
    <path d="M72 46h16"/>
    <path d="M26 58h15"/>
    <path d="M48 58h10"/>
    <path d="M74 58h13"/>
    <path d="M27 70h14"/>
    <path d="M47 70h16"/>
    <path d="M72 70h17"/>
    <path d="M28 82h18"/>
    <path d="M52 82h10"/>
    <path d="M72 82h15"/>
    <path d="M33 94h14"/>
    <path d="M54 94h9"/>
    <path d="M70 94h12"/>
    <path d="M40 106h12"/>
    <path d="M57 106h9"/>
  </g>

  <g stroke="#9E6E59" stroke-linecap="round" stroke-linejoin="round" stroke-width="3.4">
    <path d="M56 30c-9 2-18 8-24 16-7 10-9 21-6 33 2 8 7 15 14 22"/>
    <path d="M56 30c3 5 8 9 14 11 8 2 16 1 24-2-3 8-9 15-17 19-7 4-15 5-22 3"/>
    <path d="M49 38c5 3 9 6 13 10"/>
    <path d="M42 46c6 2 11 5 16 9"/>
    <path d="M38 56c5 2 10 5 15 9"/>

    <path d="M39 57c-2 6-2 13 0 20 3 10 9 18 18 24"/>
    <path d="M43 52c3-2 7-4 11-5 4-1 8 0 12 2-2 4-5 8-9 11-4 3-8 5-12 7"/>

    <path d="M86 53c7 2 14 7 19 14 6 9 8 20 6 31-3 10-8 19-17 26"/>
    <path d="M86 53c-2 6-6 11-11 15-6 5-13 7-21 8 4 4 9 7 15 9 6 2 11 6 14 11 3 5 4 11 3 17"/>
    <path d="M90 66c5 3 9 7 13 11"/>
    <path d="M84 75c5 4 9 8 12 13"/>
    <path d="M77 84c5 4 8 9 11 14"/>

    <path d="M56 104c-4 3-7 7-8 13"/>
    <path d="M77 97c3 5 7 10 12 14"/>
  </g>
</svg>
